<svg xmlns="http://www.w3.org/2000/svg" width="86" height="18" viewBox="0 0 86 18">
    <defs>
        <linearGradient id="irrmyvz00a" x1="49.984%" x2="49.984%" y1="0%" y2="100%">
            <stop offset="40%" stop-color="red"/>
            <stop offset="100%" stop-color="#D42321"/>
        </linearGradient>
        <linearGradient id="scf55kti6b" x1="50.158%" x2="49.592%" y1="51.046%" y2="48.241%">
            <stop offset="0%" stop-color="#FFF"/>
            <stop offset="100%" stop-color="#FFF" stop-opacity=".25"/>
        </linearGradient>
        <linearGradient id="045fiz006c" x1="50%" x2="50%" y1=".024%" y2="99.974%">
            <stop offset="0%" stop-color="#002A91"/>
            <stop offset="80%" stop-color="#002672"/>
        </linearGradient>
        <linearGradient id="k3tm365q9d" x1="50.48%" x2="49.672%" y1="54.882%" y2="46.206%">
            <stop offset="0%" stop-color="#FFF"/>
            <stop offset="100%" stop-color="#FFF" stop-opacity=".25"/>
        </linearGradient>
    </defs>
    <g fill="none" fill-rule="evenodd">
        <g fill-rule="nonzero">
            <g>
                <path fill="url(#irrmyvz00a)" d="M84.153 0H30.45c-.67 0-1.22.54-1.22 1.2v15.6c0 .66.55 1.2 1.22 1.2H84.17c.67 0 1.22-.54 1.22-1.2V1.2C85.372.54 84.823 0 84.152 0z" transform="translate(-232 -601) translate(232 601)"/>
                <path fill="url(#scf55kti6b)" d="M30.1 8.925h.121c3.614-.12 54.253-1.86 54.253-1.86.457-.015.914-.345.914-.915V1.2c0-.66-.548-1.2-1.22-1.2H30.45c-.67 0-1.22.54-1.22 1.2v8.67c0-.105.016-.855.87-.945z" opacity=".4" transform="translate(-232 -601) translate(232 601)"/>
                <path fill="url(#045fiz006c)" d="M18.282 16.71c.214.105.656.24 1.22.255.96.015 1.48-.345 1.86-1.185l5.124-11.22c-.214-.105-.686-.24-1.068-.24-.655-.015-1.54.12-2.104 1.44L21.652 9.6l-3.248-5.205c-.213-.06-.732-.15-1.098-.15-1.158 0-1.799.42-2.455 1.125L11.68 8.76l2.546 3.93c.473.72 1.083 1.08 2.09 1.08.655 0 1.204-.15 1.463-.27l-3.065-4.515L16.88 6.72l3.568 5.49-2.165 4.5zm-6.724-4.245c0 .825-.336 1.305-1.982 1.305-.214 0-.412-.015-.595-.045V2.745c0-.84.29-1.71 1.952-1.71.213 0 .427.015.625.06v11.37zm-3.4-1.665c0 1.545-1.022 2.67-3.11 2.895-1.51.165-3.706-.03-4.743-.15-.03-.165-.061-.375-.061-.54 0-1.35.732-1.65 1.433-1.65.717 0 1.86.12 2.714.12.93 0 1.22-.315 1.22-.6 0-.39-.366-.54-1.098-.69L2.531 9.81C.884 9.51 0 8.385 0 7.2c0-1.44 1.037-2.655 3.08-2.865 1.54-.165 3.43.015 4.468.15.03.165.06.345.06.525 0 1.35-.716 1.635-1.417 1.635-.534 0-1.357-.09-2.318-.09-.96 0-1.357.255-1.357.585 0 .345.381.48.991.585l1.89.345c1.922.315 2.76 1.395 2.76 2.73z" transform="translate(-232 -601) translate(232 601)"/>
                <path fill="url(#k3tm365q9d)" d="M26.486 4.56L24.61 8.67c-.06.105-.259.465-.777.48-.122 0-1.708.06-1.708.06-.305.015-.412.3-.412.3l1.616-3.75c.565-1.32 1.449-1.455 2.105-1.44.366 0 .838.12 1.052.24zm-4.91 4.905l-3.172-5.07c-.213-.06-.732-.15-1.098-.15-1.158 0-1.799.42-2.455 1.125L11.68 8.76l.26.39c.106.15.32.39.746.375.153 0 1.678-.06 1.8-.06.396-.015.64.15.792.345l-.564-.84 2.165-2.265 1.464 2.25c.26.345.656.345.747.345.077 0 1.983-.075 2.074-.075.137 0 .29.075.412.24zm-10.643-8.43c-1.662 0-1.937.87-1.937 1.71v7.53c0-.3.244-.615.625-.63.275-.015 1.053-.03 1.281-.045.26-.015.64-.18.656-.645v-7.86c-.198-.03-.412-.06-.625-.06zM5.383 8.04l-1.891-.345c-.61-.105-.991-.24-.991-.585 0-.315.396-.585 1.357-.585.945 0 1.784.09 2.317.09.702 0 1.418-.285 1.418-1.635 0-.18-.015-.345-.06-.525-1.037-.12-2.913-.315-4.468-.15C1.037 4.545 0 5.76 0 7.2c0 .735.335 1.455 1.006 1.965.504.315 1.007.45 1.525.54.427.075 1.388.135 2.12.105.228-.015 1.89-.06 2.256-.075.839-.03 1.312.675 1.25 1.395v-.03-.015c.016-.09.016-.18.016-.285-.015-1.335-.854-2.415-2.79-2.76z" opacity=".25" transform="translate(-232 -601) translate(232 601)"/>
                <g fill="#FFF">
                    <path d="M.107 10.08C0 9.345.229 8.955.67 8.955c.412 0 1.418.435 2.82.435 1.48 0 2.029-.51 2.029-1.185 0-.48-.214-.9-1.54-1.26L2.455 6.54C.762 6.105.107 5.265.107 4.245c0-1.275 1.021-2.4 3.339-2.4 1.037 0 2.333.225 3.126.525.137.72-.092 1.11-.534 1.11-.396 0-1.296-.375-2.561-.375-1.373 0-1.876.465-1.876 1.065 0 .42.198.81 1.418 1.155l1.555.42c1.739.48 2.44 1.275 2.44 2.4 0 1.32-1.037 2.505-3.553 2.505-1.128.015-2.516-.255-3.354-.57zM17.383 6.255c0 2.775-1.983 4.41-4.148 4.41-1.296 0-2.348-.6-2.988-1.455v3.57c0 .33-.199.555-.778.555-.29 0-.564-.03-.701-.075V2.01c.137-.03.411-.075.701-.075.58 0 .778.21.778.555v.81c.625-.855 1.692-1.455 2.988-1.455 2.165 0 4.148 1.65 4.148 4.41zm-1.495 0c0-1.86-1.25-3.135-2.943-3.135-1.143 0-2.21.66-2.698 1.605v3.06c.488.96 1.54 1.605 2.698 1.605 1.693 0 2.943-1.275 2.943-3.135zM18.8 6.255c0-2.52 1.891-4.395 4.423-4.395 2.546 0 4.437 1.875 4.437 4.395 0 2.505-1.891 4.41-4.437 4.41-2.532 0-4.422-1.905-4.422-4.41zm7.365 0c0-1.95-1.326-3.135-2.942-3.135-1.601 0-2.928 1.185-2.928 3.135 0 1.92 1.327 3.15 2.928 3.15 1.616-.015 2.942-1.23 2.942-3.15zM34.811 2.64c0 .585-.244.705-.87.705-1.234 0-2.286.57-2.927 1.89v4.785c0 .36-.198.555-.793.555-.244 0-.533-.03-.686-.075V2.01c.137-.03.427-.075.686-.075.595 0 .793.21.793.555v1.185c.839-1.26 2.12-1.89 3.72-1.68.016.12.077.39.077.645zM41.276 10.08c-.747.36-1.616.585-2.485.585-1.708 0-2.73-.99-2.73-2.64V.735c0-.375.214-.615.793-.615.244 0 .534.06.686.09v1.845h3.355c.015.12.061.375.061.585 0 .51-.214.69-.534.69h-2.866v4.605c0 .99.472 1.47 1.418 1.47.869 0 1.342-.375 1.753-.375.412 0 .64.345.55 1.05zM42.298 10.08c-.107-.735.122-1.125.564-1.125.412 0 1.418.435 2.82.435 1.48 0 2.029-.51 2.029-1.185 0-.48-.214-.9-1.54-1.26l-1.525-.405c-1.693-.435-2.348-1.275-2.348-2.295 0-1.275 1.021-2.4 3.34-2.4 1.036 0 2.332.225 3.125.525.137.72-.092 1.11-.534 1.11-.396 0-1.296-.375-2.561-.375-1.373 0-1.876.465-1.876 1.065 0 .42.198.81 1.418 1.155l1.555.42c1.739.48 2.44 1.275 2.44 2.4 0 1.32-1.037 2.505-3.553 2.505-1.128.015-2.516-.255-3.354-.57z" transform="translate(-232 -601) translate(232 601) translate(32.63 2.85)"/>
                </g>
            </g>
        </g>
    </g>
</svg>
