<?xml version="1.0" encoding="utf-8"?>
<!-- Generator: Adobe Illustrator 24.1.2, SVG Export Plug-In . SVG Version: 6.00 Build 0)  -->
<svg version="1.1" id="PRIMARY" xmlns="http://www.w3.org/2000/svg" xmlns:xlink="http://www.w3.org/1999/xlink" x="0px" y="0px"
	 viewBox="0 0 406.26 120" style="enable-background:new 0 0 406.26 120;" xml:space="preserve">
<style type="text/css">
	.st0{fill:url(#Plinth_1_);}
	.st1{opacity:0.4;fill:url(#p40_1_);}
	.st2{fill:url(#Sky_x5F_Logo_1_);}
	.st3{opacity:0.25;fill:url(#s25_1_);}
	.st4{fill:#FFFFFF;}
</style>
<linearGradient id="Plinth_1_" gradientUnits="userSpaceOnUse" x1="298.9604" y1="0" x2="298.9604" y2="120">
	<stop  offset="0.4" style="stop-color:#FF0000"/>
	<stop  offset="1" style="stop-color:#D42321"/>
</linearGradient>
<path id="Plinth" class="st0" d="M398.26,0h-198.6c-4.42,0-8,3.58-8,8v104c0,4.42,3.58,8,8,8h198.6c4.42,0,8-3.58,8-8V8
	C406.26,3.58,402.68,0,398.26,0z"/>
<linearGradient id="p40_1_" gradientUnits="userSpaceOnUse" x1="299.696" y1="57.8712" x2="297.6091" y2="-1.8897">
	<stop  offset="0" style="stop-color:#FFFFFF"/>
	<stop  offset="1" style="stop-color:#FFFFFF;stop-opacity:0.25"/>
</linearGradient>
<path id="p40" class="st1" d="M197.42,59.54c0.01,0,0.26-0.02,0.76-0.04c23.66-0.84,202.11-7.06,202.11-7.06
	c3.01-0.11,5.97-2.34,5.97-6.08l0-38.36c0-4.42-3.58-8-8-8h-198.6c-4.42,0-8,3.58-8,8v57.76C191.65,65.12,191.85,60.07,197.42,59.54
	z"/>
<linearGradient id="Sky_x5F_Logo_1_" gradientUnits="userSpaceOnUse" x1="86.85" y1="6.925" x2="86.85" y2="113.075">
	<stop  offset="0" style="stop-color:#002A91"/>
	<stop  offset="0.8" style="stop-color:#002672"/>
</linearGradient>
<path id="Sky_x5F_Logo" class="st2" d="M119.89,111.37c1.43,0.73,4.33,1.61,7.98,1.7c6.27,0.14,9.68-2.26,12.22-7.87l33.61-74.84
	c-1.38-0.74-4.47-1.57-6.96-1.61c-4.33-0.09-10.14,0.78-13.83,9.62L142.02,64L120.67,29.3c-1.38-0.42-4.75-1.01-7.19-1.01
	c-7.56,0-11.76,2.76-16.14,7.5L76.59,58.43l16.69,26.24c3.09,4.79,7.15,7.23,13.74,7.23c4.33,0,7.93-1.01,9.59-1.79l-20.1-30.24
	l14.25-15.1l23.38,36.64L119.89,111.37z M75.79,83.06c0,5.52-2.17,8.7-12.96,8.7c-1.43,0-2.67-0.09-3.87-0.28V18.3
	c0-5.57,1.89-11.37,12.77-11.37c1.38,0,2.77,0.14,4.06,0.42V83.06z M53.53,72.01c0,10.31-6.73,17.81-20.43,19.29
	c-9.91,1.06-24.25-0.18-31.08-0.97c-0.23-1.1-0.41-2.48-0.41-3.59c0-8.98,4.84-11.05,9.41-11.05c4.75,0,12.22,0.83,17.75,0.83
	c6.13,0,7.98-2.07,7.98-4.05c0-2.58-2.44-3.64-7.19-4.56l-13-2.49C5.76,63.36,0,55.9,0,47.98c0-9.62,6.82-17.68,20.24-19.15
	c10.14-1.11,22.5,0.14,29.28,0.97c0.23,1.15,0.37,2.26,0.37,3.45c0,8.97-4.75,10.91-9.31,10.91c-3.5,0-8.95-0.64-15.17-0.64
	c-6.32,0-8.95,1.75-8.95,3.87c0,2.26,2.49,3.18,6.46,3.87l12.4,2.3C48.05,55.9,53.53,63.13,53.53,72.01z"/>
<linearGradient id="s25_1_" gradientUnits="userSpaceOnUse" x1="87.6831" y1="63.1671" x2="86.2795" y2="22.976">
	<stop  offset="0" style="stop-color:#FFFFFF"/>
	<stop  offset="1" style="stop-color:#FFFFFF;stop-opacity:0.25"/>
</linearGradient>
<path id="s25_11_" class="st3" d="M173.7,30.36l-12.31,27.4c-0.36,0.74-1.73,3.09-5.13,3.21c-0.8,0.03-11.24,0.39-11.24,0.39
	c-2.05,0.07-2.72,2.01-2.74,2.04l0-0.01l10.62-25.02c3.69-8.84,9.5-9.71,13.83-9.62C169.23,28.79,172.32,29.62,173.7,30.36z
	 M141.47,63.1l-20.79-33.8c-1.38-0.42-4.75-1.01-7.19-1.01c-7.56,0-11.76,2.76-16.14,7.5L76.59,58.43l1.66,2.6
	c0.71,0.97,2.13,2.57,4.91,2.48c0.99-0.03,11.01-0.38,11.83-0.41c2.59-0.09,4.24,1.02,5.24,2.35l0,0l-3.71-5.58l14.25-15.1l9.57,15
	l0,0c1.74,2.26,4.34,2.3,4.89,2.28c0.5-0.02,13.04-0.46,13.6-0.47C139.7,61.54,140.71,62.02,141.47,63.1z M71.73,6.92
	c-10.88,0-12.77,5.8-12.77,11.37v50.16c0-2.02,1.55-4.15,4.14-4.24c1.81-0.06,6.91-0.24,8.42-0.29c1.66-0.06,4.23-1.19,4.26-4.28
	V7.34C74.5,7.06,73.11,6.92,71.73,6.92z M35.32,53.55l-12.4-2.3c-3.97-0.69-6.46-1.61-6.46-3.87c0-2.12,2.63-3.87,8.95-3.87
	c6.22,0,11.67,0.64,15.17,0.64c4.56,0,9.31-1.93,9.31-10.91c0-1.2-0.14-2.3-0.37-3.45c-6.78-0.83-19.14-2.07-29.28-0.97
	C6.82,30.31,0,38.36,0,47.98c0,4.94,2.25,9.7,6.56,13.09c3.28,2.15,6.6,2.98,9.96,3.56c2.75,0.47,9.14,0.9,13.88,0.73
	c1.47-0.05,12.42-0.44,14.8-0.52c5.55-0.19,8.56,4.55,8.25,9.29c0.01-0.06,0.01-0.13,0.02-0.19c0-0.02,0-0.04,0.01-0.06
	c0.05-0.61,0.08-1.24,0.08-1.87C53.53,63.13,48.05,55.9,35.32,53.55z"/>
<g>
	<path class="st4" d="M273.81,60.66c0,18.49-12.96,29.45-27.21,29.45c-8.48,0-15.43-4-19.55-9.66v5.42c0,2.36-1.29,3.65-5.18,3.65
		c-1.65,0-3.53-0.24-4.48-0.47V15.78c0-2.24,1.3-3.65,5.18-3.65c1.65,0,3.53,0.24,4.48,0.47v28.39c4.12-5.65,11.07-9.66,19.55-9.66
		C260.85,31.33,273.81,42.28,273.81,60.66z M264.03,60.66c0-12.37-8.25-20.85-19.32-20.85c-7.54,0-14.49,4.36-17.67,10.72v20.38
		c3.18,6.36,10.13,10.72,17.67,10.72C255.79,81.63,264.03,73.14,264.03,60.66z"/>
	<path class="st4" d="M336.62,64.19H292.8c1.29,10.96,8.83,17.08,20.03,17.08c4.83,0,8.6-0.94,12.13-2.12
		c2.47-0.83,3.53-1.18,4.48-1.18c2.71,0,4.48,2.24,4,7.42c-5.07,2.24-12.84,4.71-20.97,4.71c-17.67,0-29.57-11.9-29.57-29.57
		c0-16.96,12.6-29.21,28.04-29.21c17.43,0,26.03,13.55,26.03,27.21C336.97,60.19,336.86,62.19,336.62,64.19z M292.8,56.65h34.75
		c-0.35-9.66-6.6-17.2-16.61-17.2C302.22,39.45,294.33,45.46,292.8,56.65z"/>
	<path class="st4" d="M382.85,86.22c-4.95,2.36-10.6,3.89-16.26,3.89c-11.19,0-17.91-6.6-17.91-17.55V23.91
		c0-2.47,1.41-4.12,5.18-4.12c1.65,0,3.53,0.35,4.48,0.59v12.25h22.03c0.12,0.82,0.35,2.47,0.35,3.89c0,3.42-1.41,4.59-3.53,4.59
		h-18.85v30.75c0,6.6,3.06,9.78,9.31,9.78c5.65,0,8.83-2.47,11.54-2.47C382.02,79.15,383.44,81.51,382.85,86.22z"/>
</g>
</svg>
